# xmcd CD database file
#
# Track frame offsets:
#	150
#	33511
#	58788
#	88146
#	120186
#	148002
#
# Disc length: 2322 seconds
#
# Revision: 0
# Processed by: cddbd v1.5.1PL0 Copyright (c) Steve Scherf et al.
# Submitted via: CDex 1.51
#
DISCID=4d091006
DTITLE=Larry Young - Unity
DYEAR=1900
DGENRE=Jazz
TTITLE0=Zoltan - Shaw
TTITLE1=Monk's Dream /Monk
TTITLE2=If /Henderson 
TTITLE3=The Moontrane/Shaw 
TTITLE4=Softly, As in a Morning Sunrise/Hammerstein, Romberg 
TTITLE5=Beyond All Limits/Shaw 
EXTD=
EXTT0=
EXTT1=
EXTT2=
EXTT3=
EXTT4=
EXTT5=
PLAYORDER=
